<?xml version="1.0" encoding="UTF-8" standalone="no"?>
<!-- Created with Inkscape (http://www.inkscape.org/) -->

<svg
   version="1.1"
   id="svg2"
   width="4520"
   height="5810"
   viewBox="0 0 4520 5810"
   xml:space="preserve"
   xmlns="http://www.w3.org/2000/svg"
   xmlns:svg="http://www.w3.org/2000/svg"><defs
     id="defs6"><linearGradient
       id="linearGradient11278"><stop
         style="stop-color:#ffffff;stop-opacity:1;"
         offset="0"
         id="stop11276" /></linearGradient></defs><g
     id="layer1"
     style="display:inline"><g
       id="g15798"
       style="stroke-width:1;stroke-dasharray:none"><path
         style="fill:none;fill-opacity:1;stroke:#000000;stroke-width:1;stroke-linecap:round;stroke-linejoin:round;stroke-dasharray:none;stroke-opacity:1"
         d="m 2094.2679,3188.7727 c 15.284,9.0088 38.8288,34.0552 80.9356,44.2787 42.1068,10.2235 102.7723,5.6244 151.6641,-7.4339 48.8918,-13.0582 86.009,-34.5754 108.8511,-48.1147 22.8421,-13.5392 31.4087,-19.1002 36.3504,5.1326 4.9416,24.2327 6.2582,78.2559 -27.119,120.3811 -33.3772,42.1252 -101.4446,72.3505 -149.3823,82.2035 -47.9377,9.8529 -75.7414,-0.6686 -104.3077,-14.4456 -28.5662,-13.7771 -57.8929,-30.8087 -82.5707,-47.8039 -24.6777,-16.9951 -44.7035,-33.9519 -53.4394,-53.8307 -8.7358,-19.8787 -6.1794,-42.6773 -2.6821,-55.7171 3.4974,-13.0398 7.9352,-16.3192 13.6649,-21.474 5.7298,-5.1549 12.7512,-12.1849 28.0351,-3.176 z"
         id="path15478" /><path
         style="fill:none;fill-opacity:1;stroke:#000000;stroke-width:1;stroke-linecap:round;stroke-linejoin:round;stroke-dasharray:none;stroke-opacity:1"
         d="m 2843.0794,1673.9561 c 3.6597,21.4728 6.1175,53.6837 -24.4828,91.4506 -30.6003,37.7669 -94.2563,81.0895 -149.2411,109.5593 -54.9848,28.4697 -101.2958,42.0853 -149.8782,52.1604 -48.5824,10.075 -99.4336,16.609 -145.79,19.3999 -46.3564,2.7909 -88.2154,1.8386 -139.9298,-1.3393 -51.7144,-3.1779 -113.281,-8.5812 -168.1473,-15.4192 -54.8663,-6.838 -103.0292,-15.1103 -151.9665,-31.7164 -48.9374,-16.6061 -98.6465,-41.5452 -134.1989,-63.5255 -35.5524,-21.9803 -56.9461,-41.0008 -70.7825,-59.9944 -13.8364,-18.9935 -20.114,-37.9592 -23.0255,-54.5487 -2.9115,-16.5895 -2.4564,-30.8017 -0.5318,-42.4034 1.9246,-11.6017 5.3186,-20.5918 10.5249,-27.245 5.2063,-6.6533 12.224,-10.9687 37.2057,-7.3803 24.9818,3.5884 67.9248,15.0798 111.6866,24.9641 43.7618,9.8843 88.3399,18.1611 126.1511,24.7477 37.8112,6.5867 68.8533,11.4828 105.4875,15.2894 36.6342,3.8067 78.8581,6.5236 121.1246,7.5936 42.2666,1.0699 84.5733,0.4929 139.234,-1.7866 54.6606,-2.2795 121.6718,-6.2612 185.4906,-12.0671 63.8188,-5.8059 124.4415,-13.4355 163.8093,-19.3601 39.3679,-5.9246 57.4792,-10.144 77.916,-18.4137 20.4368,-8.2698 43.1981,-20.5894 57.0102,-21.3811 13.8121,-0.7917 18.6741,9.943 22.3339,31.4158 z"
         id="path15533" /><path
         style="fill:none;fill-opacity:1;stroke:#000000;stroke-width:1;stroke-linecap:round;stroke-linejoin:round;stroke-dasharray:none;stroke-opacity:1"
         d="m 1419.2122,5086.0179 c 30.3423,10.3668 60.6857,20.734 87.5596,29.3619 26.874,8.6279 50.2747,15.5153 81.3141,24.6106 31.0394,9.0953 69.7143,20.3976 111.6715,30.3882 41.9572,9.9907 87.1948,18.6694 131.5588,27.4534 44.364,8.7841 87.8507,17.6727 161.1755,25.4651 73.3249,7.7924 176.4721,14.4872 277.1998,13.4697 100.7277,-1.0176 199.022,-9.7474 277.0268,-19.7731 78.0048,-10.0258 135.7149,-21.3468 185.7107,-31.5608 49.9957,-10.2139 92.2769,-19.3208 129.1693,-27.4171 36.8924,-8.0962 68.398,-15.1823 94.9122,-20.7322 26.5141,-5.5499 48.0346,-9.5633 75.8637,-21.4329 27.829,-11.8695 61.9634,-31.5935 96.0996,-51.3185"
         id="path15539" /><path
         style="fill:none;fill-opacity:1;stroke:#000000;stroke-width:1;stroke-linecap:round;stroke-linejoin:round;stroke-dasharray:none;stroke-opacity:1"
         d="m 2052.5679,3213.4227 c -11.9336,-22.6848 -23.8678,-45.3704 -31.3584,-72.534 -7.4906,-27.1635 -10.5365,-58.8023 -13.1139,-90.47 -2.5774,-31.6677 -4.6858,-63.3607 -1.2203,-91.3971 3.4654,-28.0363 12.5046,-52.4122 26.4913,-76.3731 13.9868,-23.9609 32.9195,-47.5037 52.3016,-66.6238 19.3821,-19.1202 39.2115,-33.8155 61.9984,-43.8001 22.7869,-9.9845 48.5297,-15.2577 74.6174,-16.9092 26.0877,-1.6516 52.518,0.3184 77.7336,5.234 25.2156,4.9156 49.2149,12.7762 71.7252,24.9246 22.5103,12.1484 43.5304,28.5833 62.5485,45.6468 19.0181,17.0635 36.0329,34.7539 46.4086,54.8342 10.3756,20.0803 14.1119,42.5481 16.0333,68.9 1.9214,26.3518 2.0279,56.5849 0.6863,82.8091 -1.3416,26.2243 -4.1311,48.4371 -8.3129,79.5449 -4.1818,31.1077 -9.7556,71.1079 -15.3294,111.1082"
         id="path15547" /><path
         style="fill:none;fill-opacity:1;stroke:#000000;stroke-width:1;stroke-linecap:round;stroke-linejoin:round;stroke-dasharray:none;stroke-opacity:1"
         d="m 2028.4365,3347.6073 c -12.2484,-22.0924 -24.4975,-44.1859 -32.531,-61.7238 -8.0336,-17.5378 -11.8512,-30.5193 -15.6065,-53.2226 -3.7554,-22.7033 -7.4481,-55.1267 -8.387,-87.0653 -0.9388,-31.9386 0.8763,-63.3904 3.5654,-87.5692 2.6891,-24.1788 6.2521,-41.0831 10.3853,-58.0081 4.1333,-16.925 8.8366,-33.8696 13.1173,-47.6481 4.2807,-13.7785 8.1385,-24.39 14.0913,-35.9755 5.9528,-11.5855 14.0001,-24.1441 22.0478,-36.7033"
         id="path15551" /><path
         style="fill:none;fill-opacity:1;stroke:#000000;stroke-width:1;stroke-linecap:round;stroke-linejoin:round;stroke-dasharray:none;stroke-opacity:1"
         d="m 2028.4365,3347.6073 c -15.6358,12.2466 -31.2716,24.4932 -53.547,41.4389 -22.2754,16.9457 -51.1892,38.5895 -73.717,55.7681 -22.5278,17.1786 -38.6683,29.8909 -60.1589,21.0789 -21.4907,-8.8119 -48.3308,-39.1484 -71.0685,-65.003 -22.7378,-25.8546 -41.3719,-47.226 -55.4281,-63.6002 -14.0562,-16.3741 -23.5338,-27.7501 -34.184,-39.6018 -10.6501,-11.8518 -22.4723,-24.1786 -19.1981,-34.8319 3.2743,-10.6533 21.6452,-19.6314 40.8964,-30.2461 19.2511,-10.6148 39.3815,-22.8655 56.4109,-34.7622 17.0295,-11.8967 30.9572,-23.4388 45.2255,-37.3723 14.2682,-13.9335 28.8764,-30.2578 43.2174,-48.6154 14.3411,-18.3577 28.4143,-38.7476 40.3009,-57.8723 11.8867,-19.1248 21.586,-36.9833 31.1405,-57.1388 9.5544,-20.1555 18.9634,-42.6069 28.812,-65.1024 9.8486,-22.4956 20.1362,-45.0338 32.6571,-66.7961 12.5208,-21.7623 27.274,-42.747 45.1639,-61.6521 17.8899,-18.9051 38.9151,-35.7293 60.0436,-50.2495 21.1284,-14.5203 42.3585,-26.7356 59.5806,-34.8945 17.2221,-8.1588 30.4349,-12.2606 42.166,-15.4204 11.7312,-3.1597 21.9799,-5.3773 36.5117,-6.3402 14.5319,-0.9628 33.3458,-0.6711 51.4324,0.5471 18.0865,1.2182 35.4445,3.3628 51.8287,6.4704 16.3843,3.1077 31.7937,7.1781 44.4458,10.431 12.6522,3.2528 22.5464,5.688 35.3457,12.9144 12.7993,7.2264 28.503,19.2428 43.1494,31.1425 14.6463,11.8996 28.2346,23.6815 40.59,37.1548 12.3554,13.4732 23.4775,28.6367 34.0438,44.4296 10.5663,15.7929 20.5763,32.214 29.6589,50.2709 9.0827,18.0568 17.2378,37.7482 26.6559,59.3077 9.4181,21.5594 20.0986,44.9857 32.6238,70.114 12.5252,25.1282 26.8942,51.9569 35.7302,68.6624 8.8359,16.7055 12.1384,23.2871 24.8888,37.7247 12.7504,14.4376 34.9474,36.7304 63.5554,59.8002 28.6081,23.0697 63.6252,46.9153 84.6408,61.0743 21.0156,14.1589 28.0286,18.6306 33.4794,21.9889 5.4508,3.3584 9.339,5.6032 4.9276,17.222 -4.4114,11.6188 -17.1205,32.611 -28.6147,49.2472 -11.4942,16.6361 -21.7727,28.9154 -36.2097,45.3003 -14.4369,16.3849 -33.0314,36.8744 -51.3872,53.8672 -18.3558,16.9929 -36.4721,30.4883 -51.2779,38.3348 -14.8059,7.8465 -26.3013,10.0436 -43.0111,0.1529 -16.7097,-9.8907 -38.6329,-31.8695 -55.7658,-46.43 -17.1328,-14.5606 -29.4746,-21.7019 -41.3241,-29.5957 -11.8496,-7.8937 -23.2061,-16.5394 -31.1431,-24.0426 -7.9371,-7.5032 -12.454,-13.8636 -16.5065,-19.0444 -4.0524,-5.1809 -7.6403,-9.1816 -8.6705,-15.1997 -1.0301,-6.0181 0.4986,-14.053 4.1849,-20.4432 3.6864,-6.3901 9.53,-11.1344 13.5701,-15.2893 4.0401,-4.155 6.2768,-7.7208 8.4167,-12.6983 2.1399,-4.9775 4.1829,-11.3667 5.949,-18.8466 1.766,-7.48 3.2549,-16.0503 4.3561,-23.9413 1.1013,-7.8909 1.8148,-15.1021 2.2232,-21.9102 0.4083,-6.808 0.5113,-13.2125 0.5092,-21.5874 -0,-8.3749 -0.1092,-18.7197 -0.1539,-29.5371 -0.045,-10.8175 -0.027,-22.107 -0.2283,-35.5902 -0.2012,-13.4833 -0.6214,-29.1594 -1.7082,-46.5659 -1.0868,-17.4066 -2.8402,-36.5426 -5.3422,-55.5133 -2.5019,-18.9708 -5.7523,-37.7752 -9.1669,-53.4097 -3.4146,-15.6346 -6.9932,-28.0985 -12.1717,-40.5545 -5.1784,-12.456 -11.9567,-24.9032 -18.7357,-37.3519"
         id="path15555" /><path
         style="display:inline;fill:none;fill-opacity:1;stroke:#000000;stroke-width:1;stroke-linecap:round;stroke-linejoin:round;stroke-dasharray:none;stroke-opacity:1"
         d="m 1419.2122,5086.0179 c 18.2768,-45.0631 36.5539,-90.1266 54.1231,-135.5585 17.5692,-45.4319 34.43,-91.2305 50.2521,-133.6757 15.8222,-42.4452 30.6048,-81.5346 47.0089,-124.5011 16.4041,-42.9665 34.4287,-89.8075 56.0325,-149.2525 21.6039,-59.445 46.7857,-131.4904 73.8663,-204.6204 27.0807,-73.1301 56.0586,-147.3404 81.5142,-208.4796 25.4556,-61.1392 47.3875,-109.2038 71.1795,-162.2819 23.792,-53.078 49.4427,-111.1663 74.1661,-158.0632 24.7235,-46.897 48.5183,-82.5998 76.2792,-125.2652 27.7608,-42.6654 59.4859,-92.2905 86.5357,-130.5953 27.0498,-38.3047 49.4225,-65.2866 65.6367,-83.3465 16.2141,-18.0599 26.2687,-27.1967 36.7122,-30.4341 10.4436,-3.2374 21.2743,-0.5756 32.104,2.0859"
         id="path15559" /><path
         style="display:inline;fill:none;fill-opacity:1;stroke:#000000;stroke-width:1;stroke-linecap:round;stroke-linejoin:round;stroke-dasharray:none;stroke-opacity:1"
         d="m 2224.6227,3442.0298 c -2.4388,10.2573 -4.8774,20.5138 -6.9672,34.1632 -2.0898,13.6493 -3.8308,30.6906 -5.148,44.6233 -1.3172,13.9328 -2.2106,24.7563 -2.6607,35.1245 -0.45,10.3682 -0.4566,20.2803 -0.3727,29.6761 0.084,9.3958 0.2585,18.2747 0.2799,28.7054 0.021,10.4306 -0.1104,22.4125 -0.07,29.0934 0.04,6.6809 0.2524,8.0605 0.4644,9.4391"
         id="path15563" /><path
         style="display:inline;fill:none;fill-opacity:1;stroke:#000000;stroke-width:1;stroke-linecap:round;stroke-linejoin:round;stroke-dasharray:none;stroke-opacity:1"
         d="m 2210.1483,3652.8548 c 15.9002,1.1886 31.8,2.3772 46.5435,2.1984 14.7436,-0.1787 28.3282,-1.7244 41.9139,-3.2702"
         id="path15567" /><path
         style="display:inline;fill:none;fill-opacity:1;stroke:#000000;stroke-width:1;stroke-linecap:round;stroke-linejoin:round;stroke-dasharray:none;stroke-opacity:1"
         d="m 2298.6057,3651.783 c -0.094,-19.6602 -0.1875,-39.3214 -0.6377,-55.3499 -0.4501,-16.0284 -1.2566,-28.4237 -2.1428,-41.2301 -0.8862,-12.8063 -1.8521,-26.023 -3.137,-37.406 -1.2849,-11.3831 -2.889,-20.932 -4.7255,-30.7371 -1.8364,-9.805 -3.9052,-19.8657 -5.412,-27.659 -1.5068,-7.7932 -2.4516,-13.3185 -3.3965,-18.8449"
         id="path15634" /><path
         style="display:inline;fill:none;fill-opacity:1;stroke:#000000;stroke-width:1;stroke-linecap:round;stroke-linejoin:round;stroke-dasharray:none;stroke-opacity:1"
         d="m 2279.1542,3440.556 c 1.5292,-2.6831 3.0587,-5.3664 6.5122,-6.8424 3.4534,-1.476 8.8296,-1.7442 14.087,0.5167 5.2574,2.261 10.3956,7.0498 15.7304,12.7363 5.3348,5.6866 10.866,12.2706 16.9838,21.3218 6.1177,9.0512 12.822,20.569 19.8812,29.9814 7.0591,9.4124 14.4725,16.7191 22.6269,25.1696 8.1543,8.4505 17.0492,18.0443 29.3928,32.6922 12.3435,14.6479 28.135,34.3488 44.4875,55.8817 16.3524,21.5329 33.2648,44.8963 48.4691,66.2398 15.2043,21.3434 28.6997,40.6656 40.955,59.7768 12.2553,19.1112 23.27,38.0103 35.9035,63.5497 12.6334,25.5394 26.8851,57.7175 39.8389,86.4555 12.9539,28.738 24.6092,54.0343 40.2699,88.1744 15.6608,34.1402 35.326,77.122 55.1181,123.0522 19.792,45.9303 39.7097,94.8062 63.793,154.8782 24.0833,60.0721 52.3308,131.3365 80.8716,202.6953 28.5408,71.3588 57.3733,142.8079 85.1619,210.5981 27.7886,67.7901 54.5316,131.9175 83.4301,193.218 28.8986,61.3004 59.9508,119.7703 77.9446,153.2794 17.9938,33.5091 22.9282,42.0558 27.8621,50.6015"
         id="path15638" /><path
         style="fill:none;fill-opacity:1;stroke:#000000;stroke-width:1;stroke-linecap:round;stroke-linejoin:round;stroke-dasharray:none;stroke-opacity:1"
         d="m 1472.4709,4952.3119 c 64.6774,22.3493 129.3544,44.6985 195.916,60.8255 66.5615,16.1271 135.0044,26.0316 206.1608,33.8103 71.1565,7.7788 145.0244,13.4317 213.5788,17.0139 68.5544,3.5822 131.7922,5.0936 228.556,3.2216 96.7638,-1.872 227.0434,-7.1272 325.7812,-18.8595 98.7379,-11.7323 165.9333,-29.9416 230.0227,-50.1308 64.0895,-20.1892 125.0703,-42.3574 186.0529,-64.5262"
         id="path15647" /><path
         style="fill:none;fill-opacity:1;stroke:#000000;stroke-width:1;stroke-linecap:round;stroke-linejoin:round;stroke-dasharray:none;stroke-opacity:1"
         d="m 1326.2328,1756.3948 c -135.4465,155.5955 -270.8928,311.1908 -370.11078,433.7423 -99.21802,122.5515 -162.20508,212.0554 -224.96048,306.1356 -62.75539,94.0803 -125.27535,192.7311 -155.55649,282.0089 -30.28115,89.2779 -28.32255,169.1769 -27.42642,261.9406 0.89613,92.7636 0.72978,198.386 0.6466,375.8672 -0.0832,177.4812 -0.0832,427.7027 -0.68505,627.1932 -0.60187,199.4905 -1.80554,348.6858 -3.00924,497.8831"
         id="path15684" /><path
         style="fill:none;fill-opacity:1;stroke:#000000;stroke-width:1;stroke-linecap:round;stroke-linejoin:round;stroke-dasharray:none;stroke-opacity:1"
         d="m 545.13094,4541.1657 c 51.27954,-20.7768 102.55856,-41.5534 287.7661,-133.4057 185.20756,-91.8523 504.33086,-254.7738 823.46026,-417.6983"
         id="path15688" /><path
         style="fill:none;fill-opacity:1;stroke:#000000;stroke-width:1;stroke-linecap:round;stroke-linejoin:round;stroke-dasharray:none;stroke-opacity:1"
         d="m 1868.306,3466.0933 c -14.9166,15.5824 -29.8332,31.1647 -45.1134,53.2249 -15.2802,22.0601 -30.9232,50.5965 -45.3781,83.4104 -14.4548,32.8139 -27.7206,69.9029 -39.2543,104.243 -11.5336,34.3401 -21.3344,65.9293 -31.0153,103.4613 -9.6809,37.5319 -19.2412,81.0041 -27.7525,111.9328 -8.5114,30.9286 -15.9733,49.3124 -23.4351,67.696"
         id="path15696" /><path
         style="fill:none;fill-opacity:1;stroke:#000000;stroke-width:1;stroke-linecap:round;stroke-linejoin:round;stroke-dasharray:none;stroke-opacity:1"
         d="m 2649.7574,3472.5513 c 19.6981,18.2024 39.3952,36.4038 56.0308,64.9152 16.6357,28.5114 30.21,67.3309 43.5144,109.9473 13.3045,42.6164 26.3385,89.027 38.7995,130.3296 12.4609,41.3026 24.348,77.4948 34.1638,109.6313 9.8158,32.1364 17.5597,60.2152 22.8946,80.4077 5.3349,20.1926 8.2604,32.4978 198.6569,130.6487 190.3964,98.1509 568.2477,282.1407 946.1053,466.1335"
         id="path15700" /><path
         style="fill:none;fill-opacity:1;stroke:#000000;stroke-width:1;stroke-linecap:round;stroke-linejoin:round;stroke-dasharray:none;stroke-opacity:1"
         d="m 3989.9227,4564.5646 c -5.1777,-367.4088 -10.3552,-734.8113 -9.1822,-1016.5674 1.1731,-281.756 8.6965,-477.8389 -8.6752,-632.293 -17.3718,-154.4541 -59.6372,-267.2608 -127.6087,-379.5602 -67.9715,-112.2994 -161.6415,-224.078 -277.2979,-356.8422 -115.6563,-132.7641 -253.2882,-286.5009 -390.9237,-440.2419"
         id="path15704" /><path
         style="fill:none;fill-opacity:1;stroke:#000000;stroke-width:1;stroke-linecap:round;stroke-linejoin:round;stroke-dasharray:none;stroke-opacity:1"
         d="m 1326.2328,1756.3948 c 2.5192,-2.944 5.0385,-5.8881 7.5579,-8.8323"
         id="path15716" /><path
         style="fill:none;fill-opacity:1;stroke:#000000;stroke-width:1;stroke-linecap:round;stroke-linejoin:round;stroke-dasharray:none;stroke-opacity:1"
         d="m 1333.7907,1747.5625 c 0.5,19.6578 1,39.3147 3.7256,56.9902 2.7256,17.6755 7.6762,33.3689 13.465,47.8384 5.7887,14.4695 12.415,27.7143 18.4354,38.8127 6.0204,11.0984 11.4344,20.0498 19.2776,31.4196 7.8432,11.3699 18.1149,25.1576 29.8329,40.0482 11.718,14.8907 24.8815,30.8835 36.3267,45.0603 11.4452,14.1767 21.1716,26.5367 40.6153,43.5843 19.4437,17.0476 48.603,38.7817 85.6145,62.8246 37.0116,24.0428 81.8727,50.3928 130.7003,72.3361 48.8275,21.9433 101.6185,39.4789 154.6655,54.3027 53.0471,14.8238 106.3471,26.9352 169.3647,35.9962 63.0176,9.0609 135.749,15.0713 197.079,16.9698 61.3301,1.8985 111.2555,-0.3147 180.0396,-9.1559 68.7842,-8.8413 156.4227,-24.3097 230.2254,-42.3812 73.8028,-18.0714 133.7656,-38.7445 190.9951,-66.9949 57.2296,-28.2504 111.7227,-64.0762 153.9765,-101.7186 42.2538,-37.6424 72.2663,-77.0993 96.2875,-113.8458 24.0211,-36.7465 42.0497,-70.7806 55.3797,-97.6914 13.3301,-26.9108 21.9609,-46.6969 26.1469,-60.3712 4.186,-13.6743 3.9268,-21.2365 3.5655,-32.0732 -0.3612,-10.8368 -0.8245,-24.9473 -1.2878,-39.0591"
         id="path15720" /><path
         style="fill:none;fill-opacity:1;stroke:#000000;stroke-width:1;stroke-linecap:round;stroke-linejoin:round;stroke-dasharray:none;stroke-opacity:1"
         d="m 3176.235,1739.0599 c -2.6701,-2.8675 -5.3413,-5.7361 -8.0134,-8.6056"
         id="path15724" /><path
         style="fill:none;fill-opacity:1;stroke:#000000;stroke-width:1;stroke-linecap:round;stroke-linejoin:round;stroke-dasharray:none;stroke-opacity:1"
         d="m 1346.8809,354.27768 c -1.0087,14.50686 2.7595,30.17003 17.8411,46.681 15.0816,16.51098 41.4747,33.86951 75.6135,50.00054 34.1388,16.13103 76.0212,31.03398 122.7127,45.21874 46.6916,14.18477 98.1895,27.65065 170.9128,39.32883 72.7234,11.67818 166.6675,21.56819 253.2004,27.81622 86.5328,6.24803 165.6494,8.85385 249.6431,9.14858 83.9937,0.29473 172.8593,-1.72156 264.1662,-7.57534 91.307,-5.85377 185.0499,-15.54456 273.2294,-30.67607 88.1795,-15.13151 170.7907,-35.70266 229.5394,-57.30362 58.7486,-21.60096 93.6322,-44.23043 115.5223,-64.38824 21.8902,-20.15781 30.7862,-37.84337 35.4867,-50.72258 4.7005,-12.87921 5.2049,-20.95194 1.7271,-30.62149 -3.4778,-9.66955 -10.9386,-20.93552 -24.3716,-32.92068 -13.4331,-11.98515 -32.838,-24.68836 -57.3636,-37.15714 -24.5257,-12.46878 -54.1707,-24.70216 -82.7625,-35.13319 -28.5919,-10.43104 -56.129,-19.05905 -86.6847,-27.02534 -30.5557,-7.96628 -64.1281,-15.27026 -98.0126,-22.20684 -33.8846,-6.93657 -68.079,-13.50528 -101.3512,-19.3621 -33.2721,-5.85682 -65.62,-11.00141 -108.9575,-17.16159 -43.3376,-6.16017 -97.6621,-13.33553 -147.5766,-17.14479 -49.9146,-3.80927 -95.4161,-4.25213 -139.7341,-4.02432 -44.3179,0.22781 -87.4497,1.1263 -125.2779,1.76723 -37.8281,0.64092 -70.3505,1.02424 -110.4964,3.1544 -40.1459,2.13016 -87.9127,6.00706 -131.8139,10.06814 -43.9012,4.06107 -83.9343,8.3061 -125.5993,15.01988 -41.6649,6.71377 -84.9591,15.8959 -130.5246,26.40899 -45.5655,10.51308 -93.3995,22.35649 -130.8593,33.87263 -37.4598,11.51614 -64.5432,22.70436 -88.165,34.36641 -23.6218,11.66206 -43.7805,23.79723 -61.1141,35.43706 -17.3337,11.63982 -31.8411,22.78354 -41.9881,35.03088 -10.1471,12.24734 -15.933,25.59695 -16.9417,40.1038 z"
         id="path15728" /><path
         style="fill:none;fill-opacity:1;stroke:#000000;stroke-width:1;stroke-linecap:round;stroke-linejoin:round;stroke-dasharray:none;stroke-opacity:1"
         d="m 3346.287,345.74934 c 0.8019,333.79319 1.6037,667.58536 2.4056,1001.37656"
         id="path15732" /><path
         style="fill:none;fill-opacity:1;stroke:#000000;stroke-width:1;stroke-linecap:round;stroke-linejoin:round;stroke-dasharray:none;stroke-opacity:1"
         d="m 3346.287,345.74934 c -5.3475,-13.55876 -10.6954,-27.11874 -20.8307,-41.37643 -10.1353,-14.25768 -25.0579,-29.21224 -43.1841,-44.13947 -18.1263,-14.92724 -39.4551,-29.82603 -59.7406,-42.67242 -20.2856,-12.84639 -39.5267,-23.63947 -61.8308,-34.069 -22.304,-10.42953 -47.6696,-20.49468 -70.9609,-28.70276 -23.2913,-8.20807 -44.507,-14.55851 -71.4663,-22.77086 -26.9593,-8.21235 -59.6605,-18.28609 -88.702,-26.40076 -29.0415,-8.114665 -54.4217,-14.269735 -80.1422,-19.171044 -25.7205,-4.90131 -51.7798,-8.548492 -79.4238,-12.53353 -27.644,-3.985039 -56.871,-8.307697 -87.1334,-11.897821 -30.2625,-3.590124 -61.5586,-6.44745 -95.6448,-9.55723 -34.0862,-3.10978 -70.9605,-6.471832 -102.5725,-9.043733 -31.6119,-2.5719 -57.9598,-4.35349 -97.9362,-5.582392 -39.9764,-1.228902 -93.5787,-1.904998 -151.4639,-1.237846 -57.8851,0.667152 -120.0497,2.67753 -171.8161,4.200444 -51.7663,1.522914 -93.1315,2.558275 -145.9517,7.498451 -52.8202,4.940176 -117.0918,13.784892 -177.6349,25.970201 -60.5432,12.185309 -117.3543,27.71049 -171.9929,43.42848 -54.6386,15.71799 -107.1015,31.6279 -153.5456,48.43823 -46.4441,16.81033 -86.8668,34.52011 -120.3595,51.23048 -33.4927,16.71037 -60.0534,32.42034 -80.2849,49.66909 -20.2315,17.24875 -34.1323,36.03487 -43.0207,49.41143 -8.8884,13.37657 -12.7639,21.34265 -16.6393,29.30849"
         id="path15736" /><path
         style="fill:none;fill-opacity:1;stroke:#000000;stroke-width:1;stroke-linecap:round;stroke-linejoin:round;stroke-dasharray:none;stroke-opacity:1"
         d="m 1154.0092,345.74934 c 0,328.81134 0,657.62166 0,986.43106"
         id="path15740" /><path
         style="fill:none;fill-opacity:1;stroke:#000000;stroke-width:1;stroke-linecap:round;stroke-linejoin:round;stroke-dasharray:none;stroke-opacity:1"
         d="m 1154.0092,1332.1804 c 0.5,17.3675 1,34.734 6.9958,51.1303 5.9957,16.3962 17.486,31.8215 32.8209,48.4841 15.3348,16.6625 34.513,34.5614 49.9803,47.0182 15.4672,12.4568 27.2226,19.4712 40.5572,24.1544 13.3345,4.6831 28.2474,7.0354 43.1595,9.3875"
         id="path15744" /><path
         style="fill:none;fill-opacity:1;stroke:#000000;stroke-width:1;stroke-linecap:round;stroke-linejoin:round;stroke-dasharray:none;stroke-opacity:1"
         d="m 1327.5229,1512.3549 c 0.5,29.7416 1,59.4821 1.5,89.2217"
         id="path15748" /><path
         style="fill:none;fill-opacity:1;stroke:#000000;stroke-width:1;stroke-linecap:round;stroke-linejoin:round;stroke-dasharray:none;stroke-opacity:1"
         d="m 1329.0229,1601.5766 c -27.4557,12.6109 -54.9119,25.2221 -93.9811,44.5372 -39.0693,19.3152 -89.7495,45.3332 -189.7971,97.9779 -100.04756,52.6447 -249.45542,131.9123 -352.7331,196.4018 -103.27767,64.4895 -160.41962,114.1973 -213.94612,167.6752 -53.52649,53.4778 -103.4343,110.7223 -154.61622,189.7836 -51.18192,79.0614 -103.6348,179.9343 -142.95807,271.889 -39.32327,91.9546 -65.51483,174.9854 -82.029895,247.2422 -16.515063,72.2568 -23.352899,133.7351 -28.397255,178.5867 -5.044356,44.8516 -8.294968,73.0742 -11.131587,106.1158 -2.836619,33.0416 -5.259139,70.9003 -6.480587,105.3005 -1.221449,34.4002 -1.241845,65.3399 -1.252043,81.253 -0.0102,15.9132 -0.0102,145.9225 -0.0102,287.7955 0,141.873 0,360.1627 0,502.9964 0,142.8336 0,210.204 0.434045,258.2512 0.434045,48.0472 1.302067,76.7686 2.170076,105.4896"
         id="path15752" /><path
         style="fill:none;fill-opacity:1;stroke:#000000;stroke-width:1;stroke-linecap:round;stroke-linejoin:round;stroke-dasharray:none;stroke-opacity:1"
         d="m 54.293746,4442.8722 c 3.076078,34.1185 6.152059,68.2359 8.547339,90.3146 2.39528,22.0787 4.109677,32.1182 6.58112,45.9791 2.471442,13.8608 5.699772,31.5422 10.600513,53.1062 4.900742,21.5639 11.473463,47.0089 20.123552,74.6754 8.65008,27.6665 19.37683,57.5527 30.24062,85.6064 10.86379,28.0536 21.86392,54.2731 31.3015,76.1213 9.43759,21.8482 17.31204,39.3238 27.78258,58.0256 10.47055,18.7019 23.53631,38.6288 36.90639,60.1437 13.37007,21.5148 27.04371,44.6161 42.05751,66.5123 15.0138,21.8963 31.36661,42.5862 49.41579,63.1388 18.04919,20.5527 37.7935,40.9669 63.95611,64.8438 26.16262,23.8768 58.74171,51.2148 96.16917,79.1767 37.42747,27.9619 79.70089,56.5461 121.17272,79.979 41.47183,23.4328 82.13954,41.7131 133.52518,62.172 51.38565,20.4589 113.48593,43.0952 186.29593,67.0832 72.81,23.9881 156.32513,49.3265 237.12633,73.76 80.8012,24.4334 158.8838,47.9606 223.4475,67.1074 64.5637,19.1468 115.6049,33.9123 180,51.7518 64.395,17.8395 142.1397,38.7519 201.7421,53.7512 59.6024,14.9993 101.0591,24.0847 141.2372,31.8094 40.1781,7.7246 79.0753,14.0881 117.0253,18.4549 37.95,4.3669 74.9507,6.737 119.3407,7.8599 44.39,1.123 96.1667,0.9988 140.6115,0.346 44.4447,-0.6528 93.4994,-2.2143 133.055,-5.2225 39.5556,-3.0082 87.3431,-9.1691 124.3865,-14.4006 37.0434,-5.2316 69.2213,-10.2915 104.4786,-17.0681 35.2573,-6.7767 73.592,-15.2695 107.7848,-23.6391 34.1928,-8.3696 64.2418,-16.6155 125.2308,-32.9168 60.9891,-16.3014 152.914,-40.6572 260.3194,-71.5159 107.4055,-30.8587 230.2849,-68.2185 345.6949,-104.6677 115.4099,-36.4493 223.3435,-71.9858 301.6355,-102.9822 78.292,-30.9964 126.9386,-57.4509 180.3282,-93.6091 53.3895,-36.1582 111.5189,-82.0179 164.8122,-132.3183 53.2934,-50.3004 101.7478,-105.0387 139.7074,-158.0355 37.9597,-52.9968 65.4227,-104.2492 89.7443,-158.6155 24.3217,-54.3664 45.5004,-111.8433 61.3329,-163.5487 15.8325,-51.7054 26.3178,-97.6365 33.6388,-142.4681 7.321,-44.8317 11.4773,-88.5615 14.9923,-156.5066 3.515,-67.945 6.3884,-160.1008 7.5796,-256.8746 1.1912,-96.7738 0.7001,-198.1596 0.4546,-366.4766 -0.2456,-168.3171 -0.2456,-403.5539 -5.779,-558.8031 -5.5333,-155.2492 -16.5998,-230.5032 -24.9016,-280.8262 -8.3018,-50.3229 -13.8387,-75.7124 -21.169,-103.3146 -7.3304,-27.6021 -16.4539,-57.4153 -25.1534,-84.9375 -8.6994,-27.5223 -16.9745,-52.7521 -25.3642,-77.58 -8.3897,-24.8278 -16.8937,-49.2523 -27.6176,-77.529 -10.724,-28.2768 -23.6674,-60.4039 -39.3246,-95.7183 -15.6572,-35.3144 -34.0274,-73.8138 -55.7721,-113.7533 -21.7448,-39.9394 -46.863,-81.3165 -73.844,-119.2076 -26.981,-37.8911 -55.8234,-72.2938 -94.9901,-111.1861 -39.1667,-38.8922 -88.6554,-82.2713 -137.8885,-120.3947 -49.233,-38.1233 -98.2077,-70.9887 -171.6934,-114.4257 -73.4856,-43.4369 -171.4774,-97.4427 -273.6914,-150.923 -102.2139,-53.4803 -208.6437,-106.4319 -315.0769,-159.3851"
         id="path15756" /><path
         style="fill:none;fill-opacity:1;stroke:#000000;stroke-width:1;stroke-linecap:round;stroke-linejoin:round;stroke-dasharray:none;stroke-opacity:1"
         d="m 3182.4104,1605.7408 c 0,-28.6707 0,-57.3424 0,-86.0151"
         id="path15760" /><path
         style="fill:none;fill-opacity:1;stroke:#000000;stroke-width:1;stroke-linecap:round;stroke-linejoin:round;stroke-dasharray:none;stroke-opacity:1"
         d="m 3182.4104,1519.7257 c 9.9573,-3.6503 19.9141,-7.3004 33.0874,-12.9986 13.1734,-5.6981 29.5628,-13.444 43.8863,-22.5245 14.3235,-9.0804 26.5806,-19.495 36.8738,-30.3192 10.2933,-10.8241 18.6225,-22.0575 25.827,-33.9388 7.2045,-11.8814 13.284,-24.4101 17.5311,-36.6544 4.2472,-12.2443 6.6618,-24.2038 9.0766,-36.1643"
         id="path15764" /></g></g><g
     id="layer2"
     style="display:inline"><path
       style="fill:#692787;fill-opacity:1;stroke:#692787;stroke-width:13;stroke-linecap:round;stroke-linejoin:round;stroke-dasharray:none;stroke-opacity:1"
       d="m 3782.045,4459.1771 c -710.6545,-346.7475 -894.2484,-441.0292 -923.8688,-474.4377 -3.3109,-3.7344 -11.1709,-24.7478 -17.4665,-46.6963 -6.2957,-21.9486 -18.5759,-62.762 -27.2893,-90.6966 -8.7134,-27.9345 -28.3439,-92.396 -43.6233,-143.2477 -39.8196,-132.5242 -55.6539,-169.3327 -87.4814,-203.3588 l -15.5062,-16.5774 15.2526,-4.2201 c 31.1071,-8.607 97.1181,-69.1061 144.2436,-132.1994 23.6467,-31.6589 41.4816,-65.5485 38.5359,-73.225 -1.0879,-2.8349 -22.0848,-18.7603 -46.6599,-35.3898 -58.1148,-39.3251 -109.856,-81.0356 -135.0264,-108.8498 -21.2513,-23.4835 -67.6585,-110.1528 -107.4892,-200.7451 -34.3661,-78.1634 -67.0625,-125.564 -114.799,-166.4264 -17.6078,-15.0723 -40.0086,-31.7845 -49.7796,-37.1382 -37.1153,-20.3363 -133.2176,-37.2148 -186.4748,-32.7506 -87.276,7.3157 -194.3093,79.2333 -244.3081,164.1551 -9.258,15.7245 -26.1426,49.8131 -37.5213,75.7523 -62.8604,143.2989 -126.2089,226.267 -211.903,277.5313 -71.0872,42.5262 -75.712,46.5388 -71.7648,62.2657 2.3242,9.2603 93.3607,116.4393 136.0869,160.2179 23.6418,24.224 45.0354,38.7224 57.1381,38.7224 4.3686,0 2.1069,4.2822 -8.1432,15.4184 -54.0337,58.7048 -102.1863,175.6363 -151.3571,367.5483 -12.8128,50.0082 -27.1331,100.4391 -31.8228,112.0687 l -8.5267,21.1448 -237.6249,121.2989 c -453.46886,231.4796 -813.27786,408.902 -858.09737,423.1292 -7.09849,2.2533 -7.14139,-3.2095 -6.2561,-796.7245 0.58073,-520.528 2.21212,-812.9015 4.68092,-838.8997 11.24605,-118.4293 50.42416,-204.8988 182.45437,-402.6926 128.25872,-192.1438 216.09475,-302.5794 511.95478,-643.677 l 80.0086,-92.2421 2.958,30.1271 c 5.9879,60.9869 32.8093,114.0537 99.2744,196.4174 47.6198,59.0106 73.7585,82.8772 136.2545,124.411 150.1256,99.771 307.2762,152.7437 530.6197,178.8625 40.5981,4.7477 82.5182,6.3559 165.0676,6.3326 102.2179,-0.029 115.626,-0.7888 175.9513,-9.9728 235.3941,-35.8369 363.5838,-77.5385 483.8243,-157.3936 91.3042,-60.6378 156.0914,-138.4664 217.8943,-261.7554 26.6762,-53.2158 33.9744,-78.2489 30.8306,-105.7515 l -2.2807,-19.9533 12.5343,12.6975 c 35.55,36.0126 399.8373,448.6527 469.2032,531.4817 203.0057,242.4067 278.028,383.4937 309.6202,582.2716 15.9206,100.1727 16.1703,109.8704 16.6742,647.5732 0.4501,480.2504 2.2138,700.3614 7.5654,944.1508 1.1935,54.3726 0.7762,98.846 -0.9274,98.8297 -1.7036,-0.016 -92.8871,-43.8402 -202.6299,-97.3867 z"
       id="path11205" /><path
       style="display:inline;fill:#692787;fill-opacity:1;stroke:#692787;stroke-width:13;stroke-linecap:round;stroke-linejoin:round;stroke-miterlimit:0;stroke-dasharray:none;stroke-opacity:1"
       d="m 2212.2905,1939.1936 c -5.1966,-0.5098 -31.3149,-2.8247 -58.0405,-5.1442 -110.0258,-9.549 -183.8557,-22.4032 -241.2012,-41.9946 -37.122,-12.6822 -108.9164,-47.439 -139.437,-67.5037 -29.1477,-19.1621 -60.5775,-50.7485 -70.833,-71.186 -17.9954,-35.862 -18.8551,-81.5012 -1.8803,-99.8173 9.1513,-9.8744 18.9616,-9.0396 96.738,8.2318 206.1271,45.7737 296.902,57.765 437.6003,57.8069 129.7673,0.039 293.7549,-11.3771 429.1843,-29.8771 53.272,-7.277 79.3278,-13.5699 116.7142,-28.1883 17.0049,-6.649 34.8712,-12.0891 39.7031,-12.0891 12.1235,0 15.6458,8.4843 17.1665,41.349 1.2074,26.0922 1.0758,26.8059 -8.5199,46.2215 -26.4836,53.5859 -128.1503,125.4401 -229.2112,161.9977 -51.002,18.4494 -123.1996,33.7051 -185.5162,39.2005 -28.1757,2.4847 -179.6875,3.2277 -202.4671,0.9929 z"
       id="path1776" /><path
       style="fill:#692787;fill-opacity:1;stroke:#692787;stroke-width:1;stroke-linecap:round;stroke-linejoin:round;stroke-dasharray:none;stroke-opacity:1"
       d="m 2240.401,1943.0763 c -4.3829,-0.4742 -23.8498,-1.9681 -43.2597,-3.3196 -74.691,-5.2009 -164.3932,-15.9823 -209.4684,-25.1762 -61.9687,-12.6397 -117.0895,-32.9503 -175.3606,-64.6161 -89.9094,-48.8587 -125.2104,-91.867 -125.1683,-152.4965 0.015,-21.5901 2.9425,-33.8093 10.5,-43.8248 10.2712,-13.6121 16.9605,-13.1004 110.1593,8.4271 124.3786,28.7296 225.0955,45.6136 311.9257,52.2905 123.4346,9.4916 326.2766,0.8856 507.7332,-21.5418 92.0132,-11.3725 113.7444,-16.4 166.2086,-38.4525 10.6442,-4.4741 23.2528,-8.1535 28.0192,-8.1764 8.1507,-0.039 8.9556,0.6015 13.5335,10.7733 6.8541,15.2293 8.3172,50.0231 2.815,66.9467 -9.3843,28.8647 -34.2875,57.8754 -77.417,90.1863 -80.0931,60.0025 -162.2171,95.8336 -261.8002,114.2247 -63.8823,11.7979 -92.2251,14.246 -173.0391,14.9465 -42.5767,0.3691 -80.9983,0.283 -85.3812,-0.1912 z m 39.0994,3831.5146 c 662.4787,-252.1243 1324.9565,-504.2496 1987.4333,-756.3758 12.8123,-841.0821 25.6231,-1682.1315 38.4331,-2523.1988 C 3621.0887,2054.2093 2936.837,1613.4189 2252.5707,1172.6187 1562.0314,1638.3698 871.51868,2104.1014 180.99119,2569.8413 c 29.14948,827.856 58.29678,1655.678 87.44368,2483.5155 670.36957,240.4172 1340.71133,480.8237 2011.06553,721.2341 z"
       id="path13482" /><path
       style="fill:#692787;fill-opacity:1;stroke:#692787;stroke-width:13.6926;stroke-linecap:round;stroke-linejoin:round;stroke-dasharray:none;stroke-opacity:1"
       d="m 2206.2183,5234.365 c -66.6893,-1.2228 -152.6172,-6.6106 -216.7993,-13.5934 -56.7559,-6.1749 -92.1768,-11.9943 -182.5679,-29.9943 -108.0663,-21.5198 -144.2913,-30.5801 -254.3087,-63.6058 -51.4665,-15.4495 -129.6543,-41.4525 -129.6543,-43.1192 0,-0.908 50.1095,-127.104 50.9589,-128.3352 0.1629,-0.2362 19.4438,6.0421 42.8464,13.9516 65.7592,22.2252 102.725,33.402 145.815,44.0883 105.9669,26.2796 250.7902,43.3595 456.9902,53.8957 38.129,1.9483 212.5413,1.9251 264.7233,-0.035 173.1621,-6.5051 269.0249,-15.3274 356.5634,-32.8147 72.621,-14.5073 142.2606,-35.6563 277.2824,-84.2085 l 39.3591,-14.1531 10.7178,20.6926 c 10.0714,19.4445 47.6912,89.6867 54.2499,101.2931 l 2.9901,5.2914 -12.8624,7.4254 c -52.4765,30.2942 -83.464,45.2547 -110.1264,53.168 -6.427,1.9075 -31.8439,7.8284 -56.482,13.1575 -24.6382,5.3292 -67.1327,14.5637 -94.4323,20.5213 -61.1515,13.3451 -128.5736,27.3914 -164.8816,34.3504 -158.2677,30.3345 -324.5539,44.8813 -480.3816,42.024 z"
       id="path13484" /><path
       style="fill:#554b3e;fill-opacity:1;stroke:#554b3e;stroke-width:17.1;stroke-linecap:round;stroke-linejoin:round;stroke-dasharray:none;stroke-opacity:1"
       d="m 2019.5795,561.1166 c -270.088,-17.19045 -498.3964,-66.48102 -604.1675,-130.43657 -45.5786,-27.55952 -62.8571,-48.25615 -62.1137,-74.40136 0.7034,-24.73953 12.5689,-40.92623 49.3518,-67.32452 65.263,-46.83796 132.5938,-72.60134 280.3914,-107.28863 184.0825,-43.20319 298.4205,-53.71062 583.0795,-53.58381 242.5026,0.10803 268.075,2.31532 477.5709,41.22176 204.7501,38.02506 348.149,90.32143 392.6358,143.19095 18.4865,21.97001 20.1806,36.39048 7.2196,61.45435 -48.5703,93.92476 -302.0195,164.77628 -671.4153,187.69367 -117.7816,7.30719 -333.4204,7.05664 -452.5525,-0.52584 z"
       id="path23215" /><path
       style="fill:#74665a;fill-opacity:1;stroke:#75675b;stroke-width:23.2;stroke-linecap:round;stroke-linejoin:round;stroke-dasharray:none;stroke-opacity:1"
       d="m 2189.8919,3233.0622 c -23.8618,-4.3129 -44.491,-13.4554 -72.857,-32.2892 -32.7628,-21.753 -40.9065,-22.9255 -55.7982,-8.0339 -5.4258,5.4258 -10.1768,9.5091 -10.5579,9.074 -0.381,-0.4351 -4.4351,-8.3294 -9.0091,-17.543 -20.0242,-40.3355 -27.7863,-80.0946 -33.0259,-169.1658 -4.4785,-76.1336 15.6933,-128.8608 72.0926,-188.4427 49.5455,-52.3414 95.8862,-70.4667 172.2823,-67.3849 77.783,3.1378 131.5156,27.3487 190.1946,85.6983 43.9075,43.6611 50.895,65.0985 50.9849,156.4194 0.046,46.6455 -1.3326,67.5681 -7.4502,113.0758 -4.1285,30.712 -8.2489,58.9809 -9.1565,62.8199 -1.5902,6.7266 -1.7667,6.6252 -4.8611,-2.792 -4.6444,-14.1343 -13.6762,-14.2581 -37.3214,-0.5116 -50.8193,29.5447 -87.9297,44.5645 -132.7569,53.7311 -32.1961,6.5836 -90.5912,9.3515 -112.7602,5.3446 z"
       id="path27083" /><path
       style="fill:#c9c1ad;fill-opacity:1;stroke:#c9c1ad;stroke-width:12;stroke-linecap:square;stroke-linejoin:miter;stroke-miterlimit:0;stroke-dasharray:none;stroke-opacity:1;paint-order:stroke fill markers"
       d="m 2110.2091,5058.9988 c -195.0012,-9.0904 -356.8325,-29.5565 -469.3314,-59.3543 -20.6366,-5.4661 -159.0747,-49.0841 -162.382,-51.1621 -0.4341,-0.2728 8.2812,-23.845 19.3674,-52.3826 26.6401,-68.576 98.4238,-260.5785 147.7795,-395.2709 100.4766,-274.2026 143.8224,-382.6773 219.8278,-550.1277 62.3768,-137.4249 79.831,-169.4587 155.3761,-285.1634 82.4899,-126.3412 136.8802,-198.4536 160.8684,-213.2844 6.4453,-3.9848 15.8318,-7.2463 23.4524,-8.1488 l 12.706,-1.5049 -1.4594,14.0382 c -0.8027,7.721 -3.0432,26.8741 -4.9789,42.5623 -1.9356,15.6883 -4.7289,55.6731 -6.2071,88.8552 -3.0074,67.5056 -3.4154,65.3905 13.3654,69.2833 12.834,2.9772 48.6268,2.7813 66.6945,-0.365 13.1371,-2.2878 15.2565,-3.3919 16.572,-8.6333 3.5692,-14.2206 -3.4289,-117.8625 -11.3131,-167.5498 -5.3303,-33.5914 -5.2096,-42.9809 0.5665,-44.075 4.7078,-0.8918 33.751,28.1594 47.8548,47.8679 5.536,7.7359 27.022,33.9709 47.7467,58.2998 75.978,89.1914 148.7715,192.7925 181.9669,258.9785 15.501,30.9065 75.0746,160.3149 110.0893,239.1411 34.5945,77.8801 49.2128,113.3048 156.8998,380.2179 124.1381,307.6885 145.2054,357.8642 187.5791,446.7559 14.3297,30.061 26.5605,56.3147 27.1796,58.3415 0.8888,2.91 -10.2772,7.724 -53.09,22.8886 -189.8526,67.2471 -271.5797,86.6099 -418.9871,99.2663 -135.047,11.5952 -344.2825,16.2997 -468.1432,10.5257 z"
       id="path37859" /><path
       style="fill:#c9c1ad;fill-opacity:1;stroke:#c9c1ad;stroke-width:13;stroke-linecap:square;stroke-linejoin:miter;stroke-miterlimit:0;stroke-dasharray:none;stroke-opacity:1;paint-order:stroke fill markers"
       d="m 2238.3179,3383.3824 c -11.6463,-0.9478 -19.6505,-3.7002 -42.4299,-14.5903 -59.1828,-28.2933 -107.7159,-60.5237 -126.5111,-84.0149 -11.2353,-14.0424 -16.0234,-28.7448 -16.0618,-49.3198 -0.01,-3.0729 -0.1679,-7.6193 -0.3602,-10.1033 -0.3177,-4.1019 -0.2671,-4.8797 0.5515,-8.4768 0.4956,-2.1784 1.5212,-5.6867 2.279,-7.7964 l 1.3777,-3.8358 5.6156,-5.3683 c 7.2086,-6.8912 8.6965,-8.1115 11.7091,-9.6036 4.486,-2.2219 9.2287,-1.477 17.7172,2.7827 5.3241,2.6718 9.1178,4.9568 20.8411,12.5532 15.5189,10.0558 24.6074,15.3414 34.5049,20.0669 15.6306,7.4627 32.2631,12.5233 46.7511,14.2245 26.7866,3.1453 81.5092,-0.1517 112.7482,-6.793 42.7617,-9.091 77.8916,-23.2274 126.5093,-50.9081 15.6044,-8.8844 23.1671,-12.2449 27.5563,-12.2449 1.2193,0 1.7648,0.2688 2.9318,1.4449 0.7885,0.7947 1.7156,2.2252 2.0603,3.1788 2.6909,7.4447 3.5424,9.5754 4.1966,10.501 1.115,1.5775 2.2077,10.7582 2.488,20.9019 0.2258,8.1742 0.1969,8.6625 -0.812,13.6785 -6.2058,30.8555 -12.0915,51.2931 -17.9398,62.2942 -6.0067,11.2992 -13.0953,20.5927 -24.0571,31.5402 -28.6365,28.5992 -72.5707,52.3461 -117.5391,63.5312 -11.0059,2.7376 -20.7924,4.4721 -32.9441,5.839 -6.5979,0.7421 -34.168,1.089 -41.1826,0.5182 z"
       id="path37861" /><path
       style="fill:#323226;fill-opacity:1;stroke:#323226;stroke-width:13;stroke-linecap:round;stroke-linejoin:round;stroke-miterlimit:0;stroke-dasharray:none;stroke-opacity:1;paint-order:normal"
       d="M 2097.1364,5768.7739 C 1915.0576,5754.8152 1740.7875,5713.27 1255.9614,5568.2416 708.86314,5404.5853 602.84587,5358.7709 420.53187,5207.2182 345.70627,5145.0177 296.80233,5088.7324 241.04521,5000.6406 178.02893,4901.0799 145.32241,4829.5901 105.68874,4704.779 59.050032,4557.9083 58.012072,4538.3575 58.012072,3806.7523 c 0,-664.6006 1.314461,-708.5231 26.423718,-882.9439 24.45607,-169.8834 88.62683,-348.7347 191.49224,-533.711 60.28692,-108.4101 109.79524,-175.8162 190.83553,-259.8243 103.67283,-107.4695 183.83231,-164.6899 391.81511,-279.6904 134.79998,-74.5353 368.13013,-196.4496 427.83903,-223.5447 l 47.86,-21.7182 v -48.2401 -48.2401 l -21.7546,-3.9388 c -32.9649,-5.9685 -52.961,-18.1591 -93.3891,-56.9348 -64.7644,-62.1172 -58.8926,-3.0458 -58.8926,-592.46191 v -514.043 l 17.3251,-25.18101 c 46.725,-67.91253 148.1955,-120.21361 354.2053,-182.56857 196.3748,-59.438631 312.2427,-78.776229 527.6568,-88.062448 451.8754,-19.479765 843.2304,30.459226 1092.7913,139.446018 41.1165,17.95612 121.2112,71.56564 147.6969,98.85738 44.6443,46.00288 41.5786,3.74369 41.5786,573.12607 v 510.15327 l -17.7722,35.5651 c -21.7685,43.5627 -57.1464,75.7742 -107.1462,97.5565 l -37.5154,16.3435 0.083,46.569 0.083,46.5691 175.4038,88.4205 c 280.2019,141.2488 466.0692,247.2278 569.5346,324.7406 70.4197,52.756 154.7977,129.5087 198.3378,180.4137 105.5653,123.422 196.8445,307.5144 270.9049,546.3624 67.4503,217.5304 74.3542,312.4153 75.344,1035.5155 0.8374,611.718 -3.5302,704.909 -39.852,850.3304 -34.8507,139.5317 -105.6232,297.838 -174.8577,391.1279 -51.6879,69.6467 -164.2047,180.9817 -240.8936,238.3634 -117.6891,88.0596 -179.9694,117.3307 -419.301,197.0666 -250.7746,83.5484 -563.989,175.4781 -817.4952,239.9382 -93.3782,23.7436 -223.9231,47.6382 -319.5414,58.4879 -54.7027,6.2071 -309.7243,12.0012 -359.6748,8.1718 z m 403.1839,-538.8044 c 91.9178,-10.6322 152.8076,-20.6998 263.9549,-43.6427 153.7421,-31.7353 179.0133,-36.5873 208.1823,-48.0846 40.2367,-15.8598 154.7779,-62.2396 158.373,-71.6083 1.6349,-4.2605 -12.2356,-35.8626 -30.8234,-70.2268 -75.7889,-140.1146 -102.238,-200.0906 -259.5717,-588.6058 -224.1991,-553.6308 -278.6333,-663.5934 -407.2336,-822.6552 -24.5065,-30.3114 -57.3724,-73.3437 -78.4127,-99.7818 -18.1434,-22.7979 -57.6806,-53.4769 -44.5531,-46.4544 12.5845,6.7321 -20.2053,-9.2991 -25.9396,-3.3822 -2.7112,2.7975 -5.6711,29.0983 -1.2001,62.6002 4.471,33.502 8.1857,81.1444 8.2548,105.8721 l 0.1257,44.9593 h -38.5817 -38.5818 l 1.3529,-89.5652 c 0.6398,-42.3584 7.2824,-95.2032 7.9263,-104.7752 1.0649,-15.8347 -0.6088,-17.5734 -18.5667,-19.2873 -17.6529,-1.6849 -23.3843,1.9488 -54.271,34.4075 -37.2204,39.1149 -178.9072,247.8769 -221.1413,325.8306 -63.9648,118.0633 -161.2074,347.513 -258.8916,610.8697 -127.5563,343.8925 -189.8904,508.8103 -222.8187,589.5134 -17.8248,43.6864 -32.4086,83.3906 -32.4086,88.2316 0,6.243 26.5613,17.4045 91.369,38.3944 196.2761,63.5702 410.4959,106.0093 596.074,118.0884 72.4929,4.7185 322.2272,-2.0044 397.3827,-10.6977 z m 1493.7234,-797.0596 c -2.2134,-72.2231 -6.0889,-441.9694 -8.6122,-821.6584 -4.4371,-667.6568 -4.9915,-692.5361 -16.8711,-757.0576 -32.0932,-174.3074 -95.4186,-304.6563 -235.1256,-483.9825 -55.6586,-71.4428 -194.87,-233.2209 -379.1054,-440.56 -148.5837,-167.2166 -179.9635,-200.8917 -187.1987,-200.8917 -3.01,0 -5.4728,15.9313 -5.4728,35.4028 0,93.1411 -127.4556,277.2187 -246.5513,356.0813 -107.9142,71.4586 -214.7496,108.8296 -418.3967,146.3554 -79.3905,14.6292 -98.1653,15.9148 -234.2391,16.0399 -92.1523,0.085 -166.5236,-2.6859 -197.241,-7.348 -208.1719,-31.5949 -351.9819,-82.6308 -491.4617,-174.4122 -119.5927,-78.6952 -222.9607,-219.4281 -231.7761,-315.5574 -1.975,-21.537 -5.2804,-39.1581 -7.3454,-39.1581 -13.8501,0 -355.85752,401.4042 -462.72359,543.0853 -140.03105,185.6506 -252.51788,364.0734 -291.33748,462.1097 -35.88294,90.6201 -34.87592,65.6281 -39.12059,970.8863 l -3.87334,826.0647 22.71486,-8.1079 c 53.97082,-19.2647 218.02057,-99.1443 623.13984,-303.4214 237.7044,-119.8601 442.7958,-224.1039 455.7587,-231.653 26.9845,-15.7149 25.9633,-13.1496 71.3927,-179.3466 49.1406,-179.774 92.0376,-279.9743 140.2721,-327.6526 14.5255,-14.3579 57.0952,-48.295 94.5992,-75.4156 37.5041,-27.1207 73.4804,-54.9273 79.9473,-61.7925 l 11.758,-12.4823 -20.3618,-46.3111 c -11.199,-25.4711 -23.1603,-61.4496 -26.5807,-79.9522 -8.4593,-45.7603 -7.3724,-147.9776 2.0622,-193.944 l 12.2139,-99.1253 -3.5805,99.1253 c -1.8848,52.1809 14.2204,119.1827 29.7973,153.732 7.1927,15.9533 12.5191,34.6644 11.8365,41.5802 -0.6826,6.9158 1.5748,23.0319 5.0165,35.8134 10.2059,37.9018 74.5214,87.7638 159.7816,123.8742 78.5083,33.2507 223.3013,-25.3125 256.7492,-103.8453 15.2534,-35.8135 36.0986,-179.3932 36.8843,-254.0551 l -3.1881,-93.6323 12.5704,67.5268 c 4.3948,23.6087 8.9744,64.6362 9.5106,151.2339 l 0.7388,119.3272 -15.9533,24.1283 c -31.6028,47.797 -23.0499,62.6109 82.7365,143.3018 86.8217,66.2252 110.91,92.0013 129.5949,138.6753 8.6771,21.6752 40.56,120.7306 70.8508,220.1232 30.2907,99.3925 59.6806,187.0151 65.3109,194.7166 14.6888,20.0928 94.1759,64.5174 305.593,170.7934 329.5213,165.645 829.4325,408.6621 834.4418,405.6392 2.678,-1.616 3.0581,-62.0299 0.8446,-134.2531 z M 2508.932,1943.1626 c 31.8571,-6.6851 80.7837,-20.7418 108.7258,-31.2373 95.6152,-35.9146 199.1461,-110.0749 226.3218,-162.117 23.9422,-45.8498 11.7979,-119.6691 -19.6872,-119.6691 -6.7268,0 -34.8946,7.7818 -62.5953,17.2929 -96.1891,33.0268 -346.023,55.6748 -560.8572,50.8429 -141.1362,-3.1743 -201.1975,-11.1516 -380.89,-50.5897 -106.2073,-23.3099 -122.7495,-23.1527 -137.6634,1.3079 -13.4879,22.1218 -14.9707,65.8262 -3.3388,98.4086 27.6038,77.3213 175.4033,161.2264 330.4704,187.6065 166.1159,28.2597 386.5545,31.8582 499.5139,8.1543 z M 2419.9135,574.35662 c 448.9899,-20.06877 741.7444,-110.21554 741.7444,-228.40252 0,-58.94371 -120.9941,-122.18387 -322.0065,-168.30348 -101.9575,-23.39281 -260.6276,-49.25737 -341.6238,-55.68757 -160.6617,-12.75474 -504.671,-4.77039 -641.6413,14.89231 -81.5302,11.70401 -233.6676,45.69522 -301.6628,67.39879 -100.4465,32.06183 -186.9456,84.2996 -205.968,124.3865 -21.2313,44.7416 3.5882,81.7786 81.7479,121.98887 183.4653,94.386 568.5333,142.53929 989.4101,123.7271 z"
       id="path9704" /><path
       style="fill:#c9c1ad;fill-opacity:1;stroke:#c9c1ad;stroke-width:23.574;stroke-linecap:square;stroke-linejoin:miter;stroke-miterlimit:0;stroke-dasharray:none;stroke-opacity:1;paint-order:stroke fill markers"
       d="m 2661.9055,3475.752 c -7.9915,-2.534 -12.9661,-5.9103 -26.9844,-18.3146 -29.5618,-26.1583 -57.0362,-47.9935 -81.7646,-64.9822 -13.6103,-9.3504 -21.3835,-15.6719 -31.5251,-25.6376 -14.1052,-13.8607 -21.7549,-26.2495 -21.7549,-35.2324 0,-5.0196 4.8909,-14.143 11.8356,-22.0779 15.2107,-17.3796 18.2017,-25.1368 22.8155,-59.1734 l 2.7864,-20.5552 -0.206,-59.6678 c -0.2171,-62.9103 -1.2969,-96.1641 -3.8447,-118.4038 -4.3713,-38.1571 -17.3922,-99.6882 -23.0558,-108.9512 -4.574,-7.4811 -16.9435,-33.4894 -19.2974,-40.575 -6.8532,-20.629 -17.9315,-36.391 -43.4278,-61.7881 -54.8646,-54.6509 -102.9172,-78.6721 -171.9565,-85.9597 -20.4948,-2.1634 -66.2656,-1.5916 -81.1754,1.0141 -47.6739,8.3316 -79.7124,26.45 -118.405,66.9602 -17.0588,17.8603 -32.5119,37.5005 -41.7943,53.1193 -25.6879,43.2226 -30.2834,52.8557 -38.4601,80.6201 -1.8302,6.2145 -3.907,11.7622 -4.6151,12.328 -1.3195,1.0543 -9.0152,32.6225 -12.6649,51.9521 -2.6024,13.7824 -5.7622,36.7541 -7.4999,54.5241 -1.8132,18.5415 -1.8176,90.3408 -0.01,108.5337 5.88,59.0716 10.4888,76.8621 31.0481,119.8501 9.7621,20.4117 16.9554,37.0464 18.9699,43.8679 0.5728,1.9397 -5.6618,6.9172 -52.1071,41.6002 -29.0167,21.6682 -62.1825,46.7333 -73.7017,55.7002 -21.7854,16.9584 -25.9915,19.6711 -32.912,21.226 -4.8641,1.0929 -14.5315,-0.8107 -21.1346,-4.1616 -19.6668,-9.9802 -47.6217,-37.5666 -104.052,-102.6799 -47.548,-54.8643 -71.1186,-84.544 -72.1399,-90.8373 -0.5178,-3.1908 -0.075,-4.1521 3.9058,-8.4753 5.0791,-5.5162 23.9194,-18.2228 53.2407,-35.9076 24.1807,-14.5843 34.9895,-21.7673 50.6098,-33.6332 36.6181,-27.8165 72.6499,-68.3483 106.4219,-119.7126 23.9656,-36.4496 34.5248,-56.8244 70.1091,-135.2814 17.0451,-37.5813 33.5025,-69.5651 43.9204,-85.3561 46.9248,-71.1265 131.0342,-129.8933 210.1542,-146.8338 12.6621,-2.7111 14.4474,-2.8301 42.5363,-2.8344 21.7678,0 33.0292,0.4591 43.7222,1.7952 42.95,5.3668 85.0253,15.1764 108.4955,25.2949 18.6136,8.0248 52.5826,34.0004 78.7775,60.24 28.5066,28.5553 46.0403,52.7649 68.7922,94.9847 8.1963,15.2096 12.9044,25.1481 33.0106,69.684 23.8863,52.909 72.7785,148.2792 83.02,161.9406 27.9452,37.2769 72.114,75.0105 153.084,130.7803 18.9055,13.0216 39.7077,28.4716 42.3877,31.4818 1.661,1.8658 1.5792,2.3957 -1.5786,10.2275 -16.6594,41.3176 -75.2398,113.1364 -128.3108,157.3073 -19.4838,16.2164 -35.4734,26.0839 -49.2412,30.3874 -11.0028,3.4393 -10.4434,3.383 -16.0274,1.6124 z"
       id="path37934" /></g><g
     id="layer3"
     style="display:none;stroke-width:5;stroke-dasharray:none"><path
       style="fill:none;stroke:#00ff00;stroke-width:5;stroke-linecap:round;stroke-linejoin:round;stroke-miterlimit:0;stroke-dasharray:none;stroke-opacity:1"
       d="m 1347.0854,357.92631 c 3.0453,114.77793 467.1065,222.75698 919.4738,222.1915 452.3673,-0.56548 892.9965,-109.67277 889.9516,-224.45257 -3.0448,-114.7798 -449.7637,-235.21872 -902.1317,-234.65371 -452.3679,0.56501 -910.339,122.13684 -907.2937,236.91478 z"
       id="path363" /><path
       style="fill:none;stroke:#00ff00;stroke-width:5;stroke-linecap:round;stroke-linejoin:round;stroke-miterlimit:0;stroke-dasharray:none;stroke-opacity:1"
       d="m 1143.8614,371.44933 c 0.1933,166.59491 553.8088,320.78878 1102.6594,320.15015 548.8507,-0.63862 1092.8825,-156.106 1092.6897,-322.70376 C 3339.0178,202.29797 2794.6,24.589478 2245.7486,25.227567 1696.8972,25.865656 1143.6681,204.85442 1143.8614,371.44933 Z"
       id="path363-6" /><path
       style="fill:none;stroke:#00ff00;stroke-width:5;stroke-linecap:round;stroke-linejoin:round;stroke-miterlimit:0;stroke-dasharray:none;stroke-opacity:1"
       d="m 1331.1504,1716.2606 c 9.0689,440.2453 491.229,574.5157 952.4521,563.6694 461.2232,-10.8463 901.4646,-166.8047 892.3963,-607.0582 -9.0683,-440.2535 -467.4452,-1164.75017 -928.6693,-1153.90459 -461.2241,10.84559 -925.248,757.04809 -916.1791,1197.29339 z"
       id="path363-62" /><path
       style="fill:none;stroke:#00ff00;stroke-width:5;stroke-linecap:round;stroke-linejoin:round;stroke-miterlimit:0;stroke-dasharray:none;stroke-opacity:1"
       d="m 1154.8929,1347.7192 c -0.2779,167.6969 562.7772,319.9817 1111.6294,319.351 548.8522,-0.6307 1083.4477,-154.1733 1083.7261,-321.8731 0.2785,-167.6998 -533.7605,-349.53699 -1082.6134,-348.90683 -548.853,0.63016 -1112.4642,183.73193 -1112.7421,351.42893 z"
       id="path363-6-5" /><path
       style="fill:none;stroke:#00ff00;stroke-width:5;stroke-linecap:round;stroke-linejoin:round;stroke-miterlimit:0;stroke-dasharray:none"
       d="M -1159.8003,5379.438 C 970.48002,4336.4596 3100.7597,3293.4816 5231.0385,2250.5039"
       id="path491" /><path
       style="display:inline;fill:none;stroke:#00ff00;stroke-width:5;stroke-linecap:round;stroke-linejoin:round;stroke-miterlimit:0;stroke-dasharray:none"
       d="M 5670.1693,5379.3073 C 3480.3232,4307.1657 1290.4777,3235.0244 -899.36683,2162.8835"
       id="path491-6" /><path
       style="display:inline;fill:none;stroke:#00ff00;stroke-width:5;stroke-linecap:round;stroke-linejoin:round;stroke-miterlimit:0;stroke-dasharray:none"
       d="m 2250.1481,-611.4042 c 1.7006,2140.4694 3.4012,4280.9375 5.1018,6421.4042"
       id="path491-5" /><path
       style="fill:#00ff00;fill-opacity:1;stroke:#00ff00;stroke-width:5;stroke-linecap:round;stroke-linejoin:round;stroke-miterlimit:0;stroke-dasharray:none;stroke-opacity:1"
       d="m 3989.7172,5935.7101 c 0,-1978.1124 0,-3956.226 0,-5934.3409476"
       id="path1972" /><path
       style="display:inline;fill:#00ff00;fill-opacity:1;stroke:#00ff00;stroke-width:5;stroke-linecap:round;stroke-linejoin:round;stroke-miterlimit:0;stroke-dasharray:none;stroke-opacity:1"
       d="m 540.49174,5944.2781 c 0,-1978.1124 0,-3956.226 0,-5934.34093"
       id="path1972-9" /><path
       style="display:inline;fill:none;stroke:#00ff00;stroke-width:5;stroke-linecap:round;stroke-linejoin:round;stroke-miterlimit:0;stroke-dasharray:none"
       d="M -1159.2784,7476.9521 C 971.00194,6433.9737 3101.2816,5390.9957 5231.5604,4348.018"
       id="path491-0" /><path
       style="display:inline;fill:none;stroke:#00ff00;stroke-width:5;stroke-linecap:round;stroke-linejoin:round;stroke-miterlimit:0;stroke-dasharray:none"
       d="M 5670.6912,7476.8214 C 3480.8451,6404.6798 1290.9996,5332.5385 -898.8449,4260.3976"
       id="path491-6-6" /><path
       style="display:inline;fill:none;stroke:#00ff00;stroke-width:5;stroke-linecap:round;stroke-linejoin:round;stroke-miterlimit:0;stroke-dasharray:none"
       d="M -1176.4054,3285.8071 C 953.87492,2242.8287 3084.1546,1199.8507 5214.4334,156.87304"
       id="path491-1" /><path
       style="display:inline;fill:none;stroke:#00ff00;stroke-width:5;stroke-linecap:round;stroke-linejoin:round;stroke-miterlimit:0;stroke-dasharray:none"
       d="M 5618.8653,3255.5429 C 3429.0192,2183.4013 1239.1737,1111.26 -950.6708,39.1191"
       id="path491-6-8" /><path
       style="fill:#00ff00;fill-opacity:1;stroke:#00ff00;stroke-width:5;stroke-linecap:round;stroke-linejoin:round;stroke-miterlimit:0;stroke-dasharray:none;stroke-opacity:1"
       d="m 109.17297,2656.6614 c 0,699.5227 0,1399.0444 0,2098.5651"
       id="path9866" /></g></svg>
